<svg viewBox="0 0 128 128" xmlns="http://www.w3.org/2000/svg">
  <defs>
    <linearGradient id="bgGradient" x1="0%" y1="0%" x2="100%" y2="100%">
      <stop offset="0%" style="stop-color:#667eea;stop-opacity:1" />
      <stop offset="100%" style="stop-color:#764ba2;stop-opacity:1" />
    </linearGradient>
    <linearGradient id="textGradient" x1="0%" y1="0%" x2="100%" y2="0%">
      <stop offset="0%" style="stop-color:#ffffff;stop-opacity:0.95" />
      <stop offset="100%" style="stop-color:#f8fafc;stop-opacity:0.85" />
    </linearGradient>
  </defs>
  
  <!-- Background rounded rectangle -->
  <rect x="8" y="8" width="112" height="112" rx="24" ry="24" fill="url(#bgGradient)" />
  
  <!-- Document base -->
  <rect x="24" y="32" width="80" height="64" rx="6" ry="6" fill="rgba(255,255,255,0.1)" stroke="rgba(255,255,255,0.2)" stroke-width="1"/>
  
  <!-- Markdown symbol - stylized M with # -->
  <g fill="url(#textGradient)">
    <!-- Hash symbol -->
    <rect x="32" y="44" width="2" height="12" />
    <rect x="36" y="44" width="2" height="12" />
    <rect x="30" y="48" width="10" height="1.5" />
    <rect x="30" y="52" width="10" height="1.5" />
    
    <!-- Letter M -->
    <path d="M 48 44 L 48 56 L 50.5 56 L 50.5 48 L 53.5 54 L 55.5 54 L 58.5 48 L 58.5 56 L 61 56 L 61 44 L 57.5 44 L 54.5 51 L 51.5 44 Z" />
    
    <!-- Letter D -->
    <path d="M 66 44 L 66 56 L 72 56 C 75 56 77 54 77 50 C 77 46 75 44 72 44 Z M 68.5 46.5 L 71.5 46.5 C 73 46.5 74.5 47.5 74.5 50 C 74.5 52.5 73 53.5 71.5 53.5 L 68.5 53.5 Z" />
  </g>
  
  <!-- Accent elements -->
  <circle cx="88" cy="48" r="2" fill="rgba(255,255,255,0.6)" />
  <rect x="84" y="64" width="12" height="1" rx="0.5" fill="rgba(255,255,255,0.4)" />
  <rect x="84" y="68" width="8" height="1" rx="0.5" fill="rgba(255,255,255,0.3)" />
  <rect x="84" y="72" width="10" height="1" rx="0.5" fill="rgba(255,255,255,0.25)" />
  
  <!-- Subtle shadow -->
  <ellipse cx="64" cy="118" rx="40" ry="4" fill="rgba(0,0,0,0.1)" />
</svg>